<svg width="76" height="32" viewBox="0 0 76 32" fill="none" xmlns="http://www.w3.org/2000/svg">
<path d="M50.209 2.71551H45.1914V5.72282H50.0631V7.49802H45.1914V11.6807H50.209V13.4559H43.3027V0.940308H50.209V2.71551Z" fill="black"/>
<path d="M31.2402 13.4559V0.940308H33.8666C35.1257 0.940308 36.12 1.0646 36.8496 1.31318C37.6331 1.55636 38.3437 1.96976 38.9814 2.55339C40.273 3.73146 40.9187 5.27969 40.9187 7.1981C40.9187 9.12191 40.2459 10.6783 38.9004 11.8671C38.2249 12.4616 37.5169 12.875 36.7766 13.1073C36.0849 13.3397 35.1041 13.4559 33.8341 13.4559H31.2402ZM33.1289 11.6807H33.98C34.8285 11.6807 35.5337 11.5915 36.0957 11.4132C36.6577 11.2241 37.1657 10.9241 37.6196 10.5134C38.5491 9.66501 39.0138 8.5599 39.0138 7.1981C39.0138 5.82549 38.5545 4.71227 37.6358 3.85845C36.809 3.09649 35.5904 2.71551 33.98 2.71551H33.1289V11.6807Z" fill="black"/>
<path d="M15.7822 7.14144C15.7822 5.37975 16.428 3.86664 17.7195 2.60211C19.0057 1.33759 20.5512 0.705322 22.3562 0.705322C24.1395 0.705322 25.6688 1.34299 26.9441 2.61833C28.2249 3.89366 28.8652 5.42569 28.8652 7.2144C28.8652 9.01392 28.2222 10.5405 26.936 11.7943C25.6445 13.0534 24.0854 13.6829 22.2589 13.6829C20.6431 13.6829 19.1921 13.1236 17.906 12.005C16.4901 10.7675 15.7822 9.14632 15.7822 7.14144ZM17.6871 7.16576C17.6871 8.54918 18.1519 9.68671 19.0813 10.5784C20.0054 11.47 21.0727 11.9158 22.2832 11.9158C23.5964 11.9158 24.7042 11.4619 25.6066 10.554C26.5091 9.63537 26.9603 8.51675 26.9603 7.19819C26.9603 5.86341 26.5145 4.74479 25.6228 3.84232C24.7366 2.93446 23.6396 2.48053 22.3318 2.48053C21.0295 2.48053 19.9298 2.93446 19.0327 3.84232C18.1357 4.73938 17.6871 5.84719 17.6871 7.16576Z" fill="black"/>
<path d="M0 13.4559L2.63443 0L6.93059 9.72714L11.3808 0L13.7477 13.4559H11.8104L10.6026 5.90113L6.89816 14.0314L3.29912 5.89302L1.95353 13.4559H0Z" fill="black"/>
<path d="M59.6806 16.1217V18.1487C59.0482 17.696 58.4791 17.4697 57.9732 17.4697C57.4274 17.4697 56.9814 17.6627 56.6352 18.0488C56.2891 18.4149 56.116 18.9042 56.116 19.5166C56.116 20.0558 56.2392 20.5184 56.4855 20.9045C56.6119 21.1108 56.8183 21.3771 57.1045 21.7033C57.3974 22.0294 57.7735 22.4222 58.2328 22.8815C59.0782 23.7402 59.654 24.4824 59.9602 25.1081C60.2664 25.7139 60.4195 26.4561 60.4195 27.3347C60.4195 28.5263 60.0833 29.5081 59.411 30.2803C58.7387 31.0325 57.8767 31.4086 56.8249 31.4086C55.9396 31.4086 55.1841 31.1656 54.5584 30.6797V28.6228C55.2973 29.162 55.9696 29.4316 56.5753 29.4316C57.1411 29.4316 57.5838 29.2452 57.9033 28.8724C58.2228 28.493 58.3826 27.9804 58.3826 27.3347C58.3826 26.7756 58.2594 26.273 58.0131 25.827C57.8867 25.614 57.7103 25.3711 57.4839 25.0981C57.2576 24.8186 56.9747 24.509 56.6352 24.1695C56.1094 23.6503 55.6734 23.191 55.3272 22.7916C54.9811 22.3922 54.7248 22.0428 54.5584 21.7432C54.2389 21.1574 54.0791 20.4186 54.0791 19.5266C54.0791 18.3217 54.392 17.3665 55.0177 16.6609C55.6501 15.9487 56.4988 15.5925 57.5638 15.5925C58.3027 15.5925 59.0083 15.7689 59.6806 16.1217Z" fill="black"/>
<path d="M46.1816 15.8022H52.9414V17.6195H50.6149V31.2189H48.578V17.6195H46.1816V15.8022Z" fill="black"/>
<path d="M37.8242 15.8022H39.9011V21.8331H42.9465V15.8022H45.0233V31.2189H42.9465V23.5905H39.9011V31.2189H37.8242V15.8022Z" fill="black"/>
<path d="M31.9737 23.1112H35.7479V23.7103C35.7479 26.7124 35.485 28.7393 34.9591 29.791C34.4399 30.8694 33.4681 31.4086 32.0436 31.4086C30.5725 31.4086 29.524 30.8095 28.8983 29.6113C28.2793 28.4131 27.9697 26.3995 27.9697 23.5705C27.9697 20.3354 28.3092 18.182 28.9882 17.1103C29.6272 16.1051 30.6091 15.6025 31.9337 15.6025C32.9455 15.6025 33.7343 15.8455 34.3001 16.3314C34.8726 16.824 35.3186 17.6328 35.6381 18.7578L33.701 19.5665C33.6145 19.1605 33.518 18.821 33.4115 18.5481C33.305 18.2685 33.1885 18.0522 33.062 17.8991C32.8091 17.5862 32.4296 17.4298 31.9237 17.4298C31.2315 17.4298 30.7588 17.8558 30.5059 18.7078C30.2529 19.5998 30.1265 21.2007 30.1265 23.5106C30.1265 25.847 30.2563 27.428 30.5159 28.2534C30.7755 29.0788 31.2647 29.4915 31.9836 29.4915C32.6427 29.4915 33.1053 29.1986 33.3715 28.6128C33.6445 27.9871 33.7809 26.982 33.7809 25.5974V25.178V24.8685H31.9737V23.1112Z" fill="black"/>
<path d="M23.8242 15.8022H25.9011V31.2189H23.8242V15.8022Z" fill="black"/>
<path d="M17.0547 15.8022H19.1315V29.4616H22.5264V31.2189H17.0547V15.8022Z" fill="black"/>
<path d="M9.62598 15.8022H15.1476V17.5596H11.7028V22.4422H14.7582V24.1995H11.7028V29.4616H15.1476V31.2189H9.62598V15.8022Z" fill="black"/>
<path d="M0.100586 15.8021H2.65671C3.43554 15.8021 4.09121 15.8887 4.62374 16.0617C5.11632 16.2281 5.55566 16.5244 5.94174 16.9504C6.52086 17.5894 6.93357 18.4215 7.17986 19.4466C7.42616 20.4384 7.5493 21.8596 7.5493 23.7101C7.5493 25.4076 7.41285 26.7921 7.13993 27.8639C6.87366 28.889 6.43433 29.6711 5.82192 30.2103C5.06973 30.8826 3.72177 31.2188 1.77805 31.2188H0.100586V15.8021ZM2.17744 29.4015C3.44219 29.4015 4.28758 29.0188 4.7136 28.2533C5.15293 27.4878 5.3726 26 5.3726 23.79C5.3726 21.4136 5.16292 19.7794 4.74355 18.8875C4.32419 17.9955 3.55535 17.5495 2.43705 17.5495H2.17744V29.4015Z" fill="black"/>
<path d="M71.9648 15.5928C74.1362 15.5929 75.8965 17.353 75.8965 19.5244C75.8965 21.6958 74.1362 23.4559 71.9648 23.4561H65.7617C63.5903 23.4559 61.8301 21.6958 61.8301 19.5244C61.8301 17.353 63.5903 15.5929 65.7617 15.5928H71.9648ZM71.8408 17.0771C71.4232 17.0771 71.1263 17.2432 70.9512 17.5742C70.7781 17.9033 70.6914 18.4642 70.6914 19.2568C70.6914 20.146 70.779 20.7649 70.9541 21.1133C71.1311 21.4693 71.4362 21.6474 71.8691 21.6475C72.281 21.6475 72.5749 21.4814 72.75 21.1504C72.925 20.8193 73.0127 20.2604 73.0127 19.4736C73.0127 18.9116 72.9855 18.4839 72.9316 18.1914C72.8777 17.8759 72.7912 17.6322 72.6719 17.4609C72.491 17.2052 72.2139 17.0772 71.8408 17.0771ZM65.9941 21.5928H66.5947V19.6152C66.9254 19.6152 67.1784 19.5758 67.3535 19.4971C67.7019 19.3239 67.876 18.9404 67.876 18.3477C67.876 17.9262 67.7894 17.6182 67.6162 17.4238C67.443 17.2315 67.1661 17.1348 66.7852 17.1348H65.9941V21.5928ZM68.3389 21.5928H68.9395V19.4102L69.7568 21.5928H70.3652L69.5459 19.4248C69.744 19.3786 69.8961 19.2588 70.002 19.0664C70.1097 18.8721 70.1631 18.6152 70.1631 18.2959C70.1631 17.8803 70.0624 17.5712 69.8604 17.3691C69.7006 17.2132 69.4571 17.1348 69.1299 17.1348H68.3389V21.5928ZM71.8545 17.6201C72.0681 17.6201 72.21 17.7471 72.2793 18.001C72.3486 18.2531 72.3828 18.7653 72.3828 19.5371C72.3828 20.1335 72.3455 20.5423 72.2705 20.7637C72.1954 20.9869 72.0566 21.0986 71.8545 21.0986C71.6488 21.0985 71.5086 20.9795 71.4336 20.7412C71.3605 20.4891 71.3232 20.0362 71.3232 19.3838C71.3233 18.6759 71.3585 18.2046 71.4277 17.9697C71.4989 17.737 71.6411 17.6202 71.8545 17.6201ZM69.04 17.6289C69.1343 17.6289 69.2158 17.643 69.2832 17.6719C69.3523 17.7007 69.4079 17.7462 69.4502 17.8076C69.4945 17.8692 69.5267 17.9497 69.5459 18.0479C69.567 18.1459 69.5771 18.2641 69.5771 18.4023C69.5771 18.6583 69.5288 18.8405 69.4326 18.9482C69.3364 19.0558 69.1721 19.1094 68.9395 19.1094V17.6289H69.04ZM66.6787 17.6406C66.8768 17.6407 67.0219 17.7021 67.1143 17.8252C67.2066 17.9484 67.2529 18.1427 67.2529 18.4082C67.2529 18.668 67.2046 18.8492 67.1084 18.9512C67.0141 19.0511 66.8428 19.1015 66.5947 19.1016V17.6406H66.6787ZM65.0469 17.0771C64.9451 17.0773 64.8582 17.1125 64.7871 17.1816C64.7181 17.2509 64.6836 17.3346 64.6836 17.4326C64.6836 17.4826 64.6927 17.53 64.71 17.5742C64.7291 17.6163 64.7546 17.654 64.7871 17.6865C64.8198 17.7173 64.858 17.7415 64.9004 17.7588C64.9446 17.778 64.9921 17.7871 65.042 17.7871C65.1361 17.787 65.2199 17.7538 65.293 17.6865C65.3621 17.6173 65.3964 17.5336 65.3965 17.4355C65.3965 17.3375 65.3621 17.2538 65.293 17.1846C65.2237 17.1134 65.1412 17.0771 65.0469 17.0771Z" fill="black"/>
<path d="M54.5781 11.6807H57.3213C57.2364 11.847 57.1934 12.0307 57.1934 12.2324C57.1934 12.4048 57.2226 12.5673 57.2822 12.7197C57.3485 12.8655 57.4382 12.9947 57.5508 13.1074C57.6635 13.2135 57.7935 13.2968 57.9395 13.3564C58.0411 13.4006 58.1474 13.4277 58.2578 13.4424V13.4561H52.6895V0.94043H54.5781V11.6807Z" fill="black"/>
<path d="M58.8843 11.312C59.169 11.312 59.416 11.4195 59.6252 11.6345C59.8344 11.8437 59.9389 12.0964 59.9389 12.3928C59.9389 12.6891 59.8344 12.9419 59.6252 13.151C59.4044 13.3544 59.1516 13.4561 58.8669 13.4561C58.7158 13.4561 58.5735 13.427 58.4398 13.3689C58.312 13.3166 58.1987 13.244 58.0999 13.151C58.0011 13.0523 57.9227 12.939 57.8646 12.8111C57.8123 12.6775 57.7861 12.5351 57.7861 12.3841C57.7861 12.0877 57.8907 11.835 58.0999 11.6258C58.3149 11.4166 58.5764 11.312 58.8843 11.312Z" fill="black"/>
</svg>
